<svg width="60" height="40" viewBox="0 0 60 40" fill="none" xmlns="http://www.w3.org/2000/svg">
  <rect width="60" height="40" rx="4" fill="#1434CB"/>
  <path d="M26.5 15.5L24.2 24.5H21.8L20.5 19.1L19.2 24.5H16.8L14.5 15.5H17.1L18.1 20.3L19.4 15.5H21.8L23.1 20.3L24.1 15.5H26.5ZM35.5 24.5H33.1L28.5 15.5H30.9L34.2 22.1L37.5 15.5H39.9L35.5 24.5ZM42.5 15.5C41.8 15.5 41.2 15.6 40.7 15.8V15.5H37.9V24.5H40.3V19.5C40.3 18.2 41 17.5 42.1 17.5C42.4 17.5 42.7 17.5 42.9 17.6V15.7C42.7 15.6 42.6 15.6 42.5 15.6V15.5ZM45.5 15.5H47.9V24.5H45.5V15.5Z" fill="white"/>
</svg>
